<?xml version="1.0" encoding="utf-8"?>
<!-- Generator: Adobe Illustrator 25.0.1, SVG Export Plug-In . SVG Version: 6.00 Build 0)  -->
<svg version="1.1" id="Vektor" xmlns="http://www.w3.org/2000/svg" xmlns:xlink="http://www.w3.org/1999/xlink" x="0px" y="0px"
	 viewBox="0 0 325 60" style="enable-background:new 0 0 325 60;" xml:space="preserve">
<style type="text/css">
	.st0{fill:#20683D;}
</style>
<g>
	<g>
		<polygon class="st0" points="5,11.4 11.2,17.6 11.2,11.4 		"/>
		<path class="st0" d="M36.5,29H22.6v9.6h13.9c3.2,0,4.9-1.8,4.9-4.8C41.5,30.9,39.7,29,36.5,29z"/>
		<path class="st0" d="M26.2,11.4L26.2,11.4l-3.6,0v8.4h14.2c2.6-0.1,4-1.7,4-4.2c0-2.5-1.6-4.2-4.3-4.2H26.2z"/>
		<path class="st0" d="M47.9,23.7c1.1,0.7,2.1,1.5,2.9,2.4c1.7,1.9,2.7,4.2,3,6.7c0.1,0.5,0.1,1.1,0.1,1.6c0,7.4-5.6,13.1-15.4,13.1
			H26.2H15h-3.8h0H5l9.3,9.3l18.2,0c0,0,8.5,0,11.6-0.2c11.3-0.5,16.1-8.7,16.1-16c0-3.7-1.5-7.9-3.8-10.4c-0.3-0.3-0.8-1-0.8-1
			s3.5-3.2,3.3-10.2C58.5,6.9,42.9,3.2,42.9,3.2s8.8,3.4,9.3,10.6C52.5,17.9,51.4,20.5,47.9,23.7z"/>
	</g>
	<g>
		<g>
			<g>
				<path class="st0" d="M101.6,36.1c0,4.5-3.8,7.3-9.8,7.3c-3.1,0-8.1-0.2-12.1-0.3V17.4c3.9-0.1,8.7-0.2,11.7-0.2
					c5.7,0,9.3,2.6,9.3,6.8c0,2.9-1.6,5.4-4.3,6.2C99.6,31,101.6,33.4,101.6,36.1z M87.3,23V28h3.4c1.8,0,3-1.1,3-2.6
					c0-1.5-1.1-2.3-3.2-2.3C89.4,23,88.3,23,87.3,23z M94.1,34.8c0-1.4-1.2-2.3-3-2.3h-3.9v4.8c1.5,0.1,2.8,0.1,3.6,0.1
					C92.9,37.5,94.1,36.5,94.1,34.8z"/>
				<path class="st0" d="M112.8,43.2h-7.6V17.4h7.6V43.2z"/>
				<path class="st0" d="M127.2,36.5H125v6.7h-7.6V17.4c3.5-0.1,7.3-0.3,10.9-0.3c7,0,11.2,3.3,11.2,9.4c0,3.4-1.4,6.2-3.9,7.9
					l5.7,8.7h-8.9l-4-6.7H127.2z M128,30.3c2.5,0,3.9-1.4,3.9-3.5c0-2.3-1.4-3.3-4-3.3H125v6.7H128z"/>
				<path class="st0" d="M165.5,24.9c-3.6-0.7-6.1-1-7.9-1c-4.5,0-7.1,2.6-7.1,6.3c0,3.9,2.8,6.4,6.9,6.4c2.1,0,5.6-0.6,8.1-1
					l1.1,6.6c-3,0.8-6.6,1.4-9.8,1.4c-8.7,0-14.6-5.4-14.6-13.4c0-8,5.8-13.4,14.5-13.4c3.3,0,6.8,0.6,9.9,1.3L165.5,24.9z"/>
				<path class="st0" d="M186.8,43.2V34h-9v9.2h-7.6V17.4h7.6v9.9h9v-9.9h7.6v25.7H186.8z"/>
				<path class="st0" d="M217.2,43.2h-4.8l-5.6-10.7l-0.7,10.7h-7.4l1.2-25.7h6.5l8.3,15.3l8.3-15.3h6.5l1.2,25.7h-7.4l-0.6-10.7
					L217.2,43.2z"/>
				<path class="st0" d="M253.4,27.2v6.1h-10.6v3.4h12.3v6.4h-20V17.4h20v6.4h-12.3v3.4H253.4z"/>
				<path class="st0" d="M267.1,43.2h-7.6V17.4h7.6V43.2z"/>
				<path class="st0" d="M289.9,27.2v6.1h-10.6v3.4h12.3v6.4h-20V17.4h20v6.4h-12.3v3.4H289.9z"/>
				<path class="st0" d="M305.9,36.5h-2.2v6.7h-7.6V17.4c3.5-0.1,7.3-0.3,10.9-0.3c7,0,11.2,3.3,11.2,9.4c0,3.4-1.4,6.2-3.9,7.9
					l5.7,8.7h-8.9l-4-6.7H305.9z M306.7,30.3c2.5,0,3.9-1.4,3.9-3.5c0-2.3-1.4-3.3-4-3.3h-2.8v6.7H306.7z"/>
			</g>
		</g>
	</g>
</g>
</svg>
